solid ASCII
  facet normal -1.000000e+00 0.000000e+00 0.000000e+00
    outer loop
      vertex   1.500000e+01 1.335000e+02 4.000000e+01
      vertex   1.500000e+01 9.650000e+01 4.000000e+01
      vertex   1.500000e+01 1.335000e+02 7.700000e+01
    endloop
  endfacet
  facet normal -1.000000e+00 -0.000000e+00 0.000000e+00
    outer loop
      vertex   1.500000e+01 1.335000e+02 7.700000e+01
      vertex   1.500000e+01 9.650000e+01 4.000000e+01
      vertex   1.500000e+01 9.650000e+01 7.700000e+01
    endloop
  endfacet
  facet normal 0.000000e+00 1.000000e+00 -0.000000e+00
    outer loop
      vertex   2.150000e+02 1.335000e+02 4.000000e+01
      vertex   1.500000e+01 1.335000e+02 4.000000e+01
      vertex   2.150000e+02 1.335000e+02 7.700000e+01
    endloop
  endfacet
  facet normal 0.000000e+00 1.000000e+00 0.000000e+00
    outer loop
      vertex   2.150000e+02 1.335000e+02 7.700000e+01
      vertex   1.500000e+01 1.335000e+02 4.000000e+01
      vertex   1.500000e+01 1.335000e+02 7.700000e+01
    endloop
  endfacet
  facet normal 1.000000e+00 0.000000e+00 0.000000e+00
    outer loop
      vertex   2.150000e+02 9.650000e+01 4.000000e+01
      vertex   2.150000e+02 1.335000e+02 4.000000e+01
      vertex   2.150000e+02 9.650000e+01 7.700000e+01
    endloop
  endfacet
  facet normal 1.000000e+00 -0.000000e+00 0.000000e+00
    outer loop
      vertex   2.150000e+02 9.650000e+01 7.700000e+01
      vertex   2.150000e+02 1.335000e+02 4.000000e+01
      vertex   2.150000e+02 1.335000e+02 7.700000e+01
    endloop
  endfacet
  facet normal 0.000000e+00 -1.000000e+00 0.000000e+00
    outer loop
      vertex   1.500000e+01 9.650000e+01 4.000000e+01
      vertex   2.150000e+02 9.650000e+01 4.000000e+01
      vertex   1.500000e+01 9.650000e+01 7.700000e+01
    endloop
  endfacet
  facet normal 0.000000e+00 -1.000000e+00 0.000000e+00
    outer loop
      vertex   1.500000e+01 9.650000e+01 7.700000e+01
      vertex   2.150000e+02 9.650000e+01 4.000000e+01
      vertex   2.150000e+02 9.650000e+01 7.700000e+01
    endloop
  endfacet
  facet normal 0.000000e+00 -0.000000e+00 1.000000e+00
    outer loop
      vertex   2.150000e+02 9.650000e+01 7.700000e+01
      vertex   2.150000e+02 1.335000e+02 7.700000e+01
      vertex   1.500000e+01 9.650000e+01 7.700000e+01
    endloop
  endfacet
  facet normal 0.000000e+00 0.000000e+00 1.000000e+00
    outer loop
      vertex   1.500000e+01 9.650000e+01 7.700000e+01
      vertex   2.150000e+02 1.335000e+02 7.700000e+01
      vertex   1.500000e+01 1.335000e+02 7.700000e+01
    endloop
  endfacet
  facet normal 0.000000e+00 0.000000e+00 -1.000000e+00
    outer loop
      vertex   1.500000e+01 9.650000e+01 4.000000e+01
      vertex   1.500000e+01 1.335000e+02 4.000000e+01
      vertex   2.150000e+02 9.650000e+01 4.000000e+01
    endloop
  endfacet
  facet normal 0.000000e+00 0.000000e+00 -1.000000e+00
    outer loop
      vertex   2.150000e+02 9.650000e+01 4.000000e+01
      vertex   1.500000e+01 1.335000e+02 4.000000e+01
      vertex   2.150000e+02 1.335000e+02 4.000000e+01
    endloop
  endfacet
endsolid
