solid ASCII
  facet normal 1.000000e+00 0.000000e+00 0.000000e+00
    outer loop
      vertex   -5.850000e+01 -4.700000e+01 4.000000e+01
      vertex   -5.850000e+01 -8.000000e+01 4.000000e+01
      vertex   -5.850000e+01 -4.700000e+01 2.500000e+01
    endloop
  endfacet
  facet normal 1.000000e+00 0.000000e+00 0.000000e+00
    outer loop
      vertex   -5.850000e+01 -4.700000e+01 2.500000e+01
      vertex   -5.850000e+01 -8.000000e+01 4.000000e+01
      vertex   -5.850000e+01 -8.000000e+01 2.500000e+01
    endloop
  endfacet
  facet normal -0.000000e+00 1.000000e+00 0.000000e+00
    outer loop
      vertex   -5.850000e+01 -8.000000e+01 5.000000e+01
      vertex   -3.550000e+01 -8.000000e+01 5.000000e+01
      vertex   -5.850000e+01 -8.000000e+01 4.000000e+01
    endloop
  endfacet
  facet normal -0.000000e+00 1.000000e+00 0.000000e+00
    outer loop
      vertex   -5.850000e+01 -8.000000e+01 4.000000e+01
      vertex   -3.550000e+01 -8.000000e+01 5.000000e+01
      vertex   -3.550000e+01 -8.000000e+01 2.500000e+01
    endloop
  endfacet
  facet normal 0.000000e+00 1.000000e+00 0.000000e+00
    outer loop
      vertex   -5.850000e+01 -8.000000e+01 4.000000e+01
      vertex   -3.550000e+01 -8.000000e+01 2.500000e+01
      vertex   -5.850000e+01 -8.000000e+01 2.500000e+01
    endloop
  endfacet
  facet normal -1.000000e+00 0.000000e+00 0.000000e+00
    outer loop
      vertex   -3.550000e+01 -8.000000e+01 5.000000e+01
      vertex   -3.550000e+01 -4.700000e+01 5.000000e+01
      vertex   -3.550000e+01 -8.000000e+01 2.500000e+01
    endloop
  endfacet
  facet normal -1.000000e+00 0.000000e+00 0.000000e+00
    outer loop
      vertex   -3.550000e+01 -8.000000e+01 2.500000e+01
      vertex   -3.550000e+01 -4.700000e+01 5.000000e+01
      vertex   -3.550000e+01 -4.700000e+01 2.500000e+01
    endloop
  endfacet
  facet normal 0.000000e+00 -1.000000e+00 0.000000e+00
    outer loop
      vertex   -5.850000e+01 -4.700000e+01 5.000000e+01
      vertex   -5.850000e+01 -4.700000e+01 4.000000e+01
      vertex   -3.550000e+01 -4.700000e+01 5.000000e+01
    endloop
  endfacet
  facet normal 0.000000e+00 -1.000000e+00 -0.000000e+00
    outer loop
      vertex   -3.550000e+01 -4.700000e+01 5.000000e+01
      vertex   -5.850000e+01 -4.700000e+01 4.000000e+01
      vertex   -3.550000e+01 -4.700000e+01 2.500000e+01
    endloop
  endfacet
  facet normal 0.000000e+00 -1.000000e+00 0.000000e+00
    outer loop
      vertex   -3.550000e+01 -4.700000e+01 2.500000e+01
      vertex   -5.850000e+01 -4.700000e+01 4.000000e+01
      vertex   -5.850000e+01 -4.700000e+01 2.500000e+01
    endloop
  endfacet
  facet normal 0.000000e+00 0.000000e+00 1.000000e+00
    outer loop
      vertex   -5.850000e+01 -8.000000e+01 2.500000e+01
      vertex   -3.550000e+01 -8.000000e+01 2.500000e+01
      vertex   -5.850000e+01 -4.700000e+01 2.500000e+01
    endloop
  endfacet
  facet normal -0.000000e+00 0.000000e+00 1.000000e+00
    outer loop
      vertex   -5.850000e+01 -4.700000e+01 2.500000e+01
      vertex   -3.550000e+01 -8.000000e+01 2.500000e+01
      vertex   -3.550000e+01 -4.700000e+01 2.500000e+01
    endloop
  endfacet
  facet normal -1.000000e+00 0.000000e+00 0.000000e+00
    outer loop
      vertex   -1.715000e+02 -1.830000e+02 4.000000e+01
      vertex   -1.715000e+02 -1.500000e+02 4.000000e+01
      vertex   -1.715000e+02 -1.830000e+02 2.500000e+01
    endloop
  endfacet
  facet normal -1.000000e+00 0.000000e+00 0.000000e+00
    outer loop
      vertex   -1.715000e+02 -1.830000e+02 2.500000e+01
      vertex   -1.715000e+02 -1.500000e+02 4.000000e+01
      vertex   -1.715000e+02 -1.500000e+02 2.500000e+01
    endloop
  endfacet
  facet normal -0.000000e+00 -1.000000e+00 -0.000000e+00
    outer loop
      vertex   -1.715000e+02 -1.500000e+02 5.000000e+01
      vertex   -1.945000e+02 -1.500000e+02 5.000000e+01
      vertex   -1.715000e+02 -1.500000e+02 4.000000e+01
    endloop
  endfacet
  facet normal -0.000000e+00 -1.000000e+00 0.000000e+00
    outer loop
      vertex   -1.715000e+02 -1.500000e+02 4.000000e+01
      vertex   -1.945000e+02 -1.500000e+02 5.000000e+01
      vertex   -1.945000e+02 -1.500000e+02 2.500000e+01
    endloop
  endfacet
  facet normal 0.000000e+00 -1.000000e+00 -0.000000e+00
    outer loop
      vertex   -1.715000e+02 -1.500000e+02 4.000000e+01
      vertex   -1.945000e+02 -1.500000e+02 2.500000e+01
      vertex   -1.715000e+02 -1.500000e+02 2.500000e+01
    endloop
  endfacet
  facet normal 1.000000e+00 0.000000e+00 0.000000e+00
    outer loop
      vertex   -1.945000e+02 -1.500000e+02 5.000000e+01
      vertex   -1.945000e+02 -1.830000e+02 5.000000e+01
      vertex   -1.945000e+02 -1.500000e+02 2.500000e+01
    endloop
  endfacet
  facet normal 1.000000e+00 0.000000e+00 0.000000e+00
    outer loop
      vertex   -1.945000e+02 -1.500000e+02 2.500000e+01
      vertex   -1.945000e+02 -1.830000e+02 5.000000e+01
      vertex   -1.945000e+02 -1.830000e+02 2.500000e+01
    endloop
  endfacet
  facet normal 0.000000e+00 1.000000e+00 0.000000e+00
    outer loop
      vertex   -1.715000e+02 -1.830000e+02 5.000000e+01
      vertex   -1.715000e+02 -1.830000e+02 4.000000e+01
      vertex   -1.945000e+02 -1.830000e+02 5.000000e+01
    endloop
  endfacet
  facet normal 0.000000e+00 1.000000e+00 0.000000e+00
    outer loop
      vertex   -1.945000e+02 -1.830000e+02 5.000000e+01
      vertex   -1.715000e+02 -1.830000e+02 4.000000e+01
      vertex   -1.945000e+02 -1.830000e+02 2.500000e+01
    endloop
  endfacet
  facet normal 0.000000e+00 1.000000e+00 0.000000e+00
    outer loop
      vertex   -1.945000e+02 -1.830000e+02 2.500000e+01
      vertex   -1.715000e+02 -1.830000e+02 4.000000e+01
      vertex   -1.715000e+02 -1.830000e+02 2.500000e+01
    endloop
  endfacet
  facet normal 0.000000e+00 0.000000e+00 1.000000e+00
    outer loop
      vertex   -1.715000e+02 -1.500000e+02 2.500000e+01
      vertex   -1.945000e+02 -1.500000e+02 2.500000e+01
      vertex   -1.715000e+02 -1.830000e+02 2.500000e+01
    endloop
  endfacet
  facet normal 0.000000e+00 0.000000e+00 1.000000e+00
    outer loop
      vertex   -1.715000e+02 -1.830000e+02 2.500000e+01
      vertex   -1.945000e+02 -1.500000e+02 2.500000e+01
      vertex   -1.945000e+02 -1.830000e+02 2.500000e+01
    endloop
  endfacet
  facet normal 1.000000e+00 0.000000e+00 0.000000e+00
    outer loop
      vertex   -5.850000e+01 -1.500000e+02 4.000000e+01
      vertex   -5.850000e+01 -1.830000e+02 4.000000e+01
      vertex   -5.850000e+01 -1.500000e+02 2.500000e+01
    endloop
  endfacet
  facet normal 1.000000e+00 0.000000e+00 0.000000e+00
    outer loop
      vertex   -5.850000e+01 -1.500000e+02 2.500000e+01
      vertex   -5.850000e+01 -1.830000e+02 4.000000e+01
      vertex   -5.850000e+01 -1.830000e+02 2.500000e+01
    endloop
  endfacet
  facet normal -0.000000e+00 1.000000e+00 0.000000e+00
    outer loop
      vertex   -5.850000e+01 -1.830000e+02 5.000000e+01
      vertex   -3.550000e+01 -1.830000e+02 5.000000e+01
      vertex   -5.850000e+01 -1.830000e+02 4.000000e+01
    endloop
  endfacet
  facet normal -0.000000e+00 1.000000e+00 0.000000e+00
    outer loop
      vertex   -5.850000e+01 -1.830000e+02 4.000000e+01
      vertex   -3.550000e+01 -1.830000e+02 5.000000e+01
      vertex   -3.550000e+01 -1.830000e+02 2.500000e+01
    endloop
  endfacet
  facet normal 0.000000e+00 1.000000e+00 0.000000e+00
    outer loop
      vertex   -5.850000e+01 -1.830000e+02 4.000000e+01
      vertex   -3.550000e+01 -1.830000e+02 2.500000e+01
      vertex   -5.850000e+01 -1.830000e+02 2.500000e+01
    endloop
  endfacet
  facet normal -1.000000e+00 0.000000e+00 0.000000e+00
    outer loop
      vertex   -3.550000e+01 -1.830000e+02 5.000000e+01
      vertex   -3.550000e+01 -1.500000e+02 5.000000e+01
      vertex   -3.550000e+01 -1.830000e+02 2.500000e+01
    endloop
  endfacet
  facet normal -1.000000e+00 0.000000e+00 0.000000e+00
    outer loop
      vertex   -3.550000e+01 -1.830000e+02 2.500000e+01
      vertex   -3.550000e+01 -1.500000e+02 5.000000e+01
      vertex   -3.550000e+01 -1.500000e+02 2.500000e+01
    endloop
  endfacet
  facet normal 0.000000e+00 -1.000000e+00 0.000000e+00
    outer loop
      vertex   -5.850000e+01 -1.500000e+02 5.000000e+01
      vertex   -5.850000e+01 -1.500000e+02 4.000000e+01
      vertex   -3.550000e+01 -1.500000e+02 5.000000e+01
    endloop
  endfacet
  facet normal 0.000000e+00 -1.000000e+00 -0.000000e+00
    outer loop
      vertex   -3.550000e+01 -1.500000e+02 5.000000e+01
      vertex   -5.850000e+01 -1.500000e+02 4.000000e+01
      vertex   -3.550000e+01 -1.500000e+02 2.500000e+01
    endloop
  endfacet
  facet normal 0.000000e+00 -1.000000e+00 0.000000e+00
    outer loop
      vertex   -3.550000e+01 -1.500000e+02 2.500000e+01
      vertex   -5.850000e+01 -1.500000e+02 4.000000e+01
      vertex   -5.850000e+01 -1.500000e+02 2.500000e+01
    endloop
  endfacet
  facet normal 0.000000e+00 0.000000e+00 1.000000e+00
    outer loop
      vertex   -5.850000e+01 -1.830000e+02 2.500000e+01
      vertex   -3.550000e+01 -1.830000e+02 2.500000e+01
      vertex   -5.850000e+01 -1.500000e+02 2.500000e+01
    endloop
  endfacet
  facet normal -0.000000e+00 0.000000e+00 1.000000e+00
    outer loop
      vertex   -5.850000e+01 -1.500000e+02 2.500000e+01
      vertex   -3.550000e+01 -1.830000e+02 2.500000e+01
      vertex   -3.550000e+01 -1.500000e+02 2.500000e+01
    endloop
  endfacet
  facet normal -1.000000e+00 0.000000e+00 0.000000e+00
    outer loop
      vertex   -1.715000e+02 -8.000000e+01 4.000000e+01
      vertex   -1.715000e+02 -4.700000e+01 4.000000e+01
      vertex   -1.715000e+02 -8.000000e+01 2.500000e+01
    endloop
  endfacet
  facet normal -1.000000e+00 0.000000e+00 0.000000e+00
    outer loop
      vertex   -1.715000e+02 -8.000000e+01 2.500000e+01
      vertex   -1.715000e+02 -4.700000e+01 4.000000e+01
      vertex   -1.715000e+02 -4.700000e+01 2.500000e+01
    endloop
  endfacet
  facet normal -0.000000e+00 -1.000000e+00 -0.000000e+00
    outer loop
      vertex   -1.715000e+02 -4.700000e+01 5.000000e+01
      vertex   -1.945000e+02 -4.700000e+01 5.000000e+01
      vertex   -1.715000e+02 -4.700000e+01 4.000000e+01
    endloop
  endfacet
  facet normal -0.000000e+00 -1.000000e+00 0.000000e+00
    outer loop
      vertex   -1.715000e+02 -4.700000e+01 4.000000e+01
      vertex   -1.945000e+02 -4.700000e+01 5.000000e+01
      vertex   -1.945000e+02 -4.700000e+01 2.500000e+01
    endloop
  endfacet
  facet normal 0.000000e+00 -1.000000e+00 -0.000000e+00
    outer loop
      vertex   -1.715000e+02 -4.700000e+01 4.000000e+01
      vertex   -1.945000e+02 -4.700000e+01 2.500000e+01
      vertex   -1.715000e+02 -4.700000e+01 2.500000e+01
    endloop
  endfacet
  facet normal 1.000000e+00 0.000000e+00 0.000000e+00
    outer loop
      vertex   -1.945000e+02 -4.700000e+01 5.000000e+01
      vertex   -1.945000e+02 -8.000000e+01 5.000000e+01
      vertex   -1.945000e+02 -4.700000e+01 2.500000e+01
    endloop
  endfacet
  facet normal 1.000000e+00 0.000000e+00 0.000000e+00
    outer loop
      vertex   -1.945000e+02 -4.700000e+01 2.500000e+01
      vertex   -1.945000e+02 -8.000000e+01 5.000000e+01
      vertex   -1.945000e+02 -8.000000e+01 2.500000e+01
    endloop
  endfacet
  facet normal 0.000000e+00 1.000000e+00 0.000000e+00
    outer loop
      vertex   -1.715000e+02 -8.000000e+01 5.000000e+01
      vertex   -1.715000e+02 -8.000000e+01 4.000000e+01
      vertex   -1.945000e+02 -8.000000e+01 5.000000e+01
    endloop
  endfacet
  facet normal 0.000000e+00 1.000000e+00 0.000000e+00
    outer loop
      vertex   -1.945000e+02 -8.000000e+01 5.000000e+01
      vertex   -1.715000e+02 -8.000000e+01 4.000000e+01
      vertex   -1.945000e+02 -8.000000e+01 2.500000e+01
    endloop
  endfacet
  facet normal 0.000000e+00 1.000000e+00 0.000000e+00
    outer loop
      vertex   -1.945000e+02 -8.000000e+01 2.500000e+01
      vertex   -1.715000e+02 -8.000000e+01 4.000000e+01
      vertex   -1.715000e+02 -8.000000e+01 2.500000e+01
    endloop
  endfacet
  facet normal 0.000000e+00 0.000000e+00 1.000000e+00
    outer loop
      vertex   -1.715000e+02 -4.700000e+01 2.500000e+01
      vertex   -1.945000e+02 -4.700000e+01 2.500000e+01
      vertex   -1.715000e+02 -8.000000e+01 2.500000e+01
    endloop
  endfacet
  facet normal 0.000000e+00 0.000000e+00 1.000000e+00
    outer loop
      vertex   -1.715000e+02 -8.000000e+01 2.500000e+01
      vertex   -1.945000e+02 -4.700000e+01 2.500000e+01
      vertex   -1.945000e+02 -8.000000e+01 2.500000e+01
    endloop
  endfacet
  facet normal 1.000000e+00 0.000000e+00 0.000000e+00
    outer loop
      vertex   -1.315000e+02 -4.700000e+01 4.000000e+01
      vertex   -1.315000e+02 -8.000000e+01 4.000000e+01
      vertex   -1.315000e+02 -4.700000e+01 2.500000e+01
    endloop
  endfacet
  facet normal 1.000000e+00 0.000000e+00 0.000000e+00
    outer loop
      vertex   -1.315000e+02 -4.700000e+01 2.500000e+01
      vertex   -1.315000e+02 -8.000000e+01 4.000000e+01
      vertex   -1.315000e+02 -8.000000e+01 2.500000e+01
    endloop
  endfacet
  facet normal -0.000000e+00 1.000000e+00 0.000000e+00
    outer loop
      vertex   -1.315000e+02 -8.000000e+01 5.000000e+01
      vertex   -9.850000e+01 -8.000000e+01 5.000000e+01
      vertex   -1.315000e+02 -8.000000e+01 4.000000e+01
    endloop
  endfacet
  facet normal 0.000000e+00 1.000000e+00 0.000000e+00
    outer loop
      vertex   -1.315000e+02 -8.000000e+01 4.000000e+01
      vertex   -9.850000e+01 -8.000000e+01 5.000000e+01
      vertex   -9.850000e+01 -8.000000e+01 4.000000e+01
    endloop
  endfacet
  facet normal -0.000000e+00 1.000000e+00 0.000000e+00
    outer loop
      vertex   -1.315000e+02 -8.000000e+01 4.000000e+01
      vertex   -9.850000e+01 -8.000000e+01 4.000000e+01
      vertex   -1.315000e+02 -8.000000e+01 2.500000e+01
    endloop
  endfacet
  facet normal 0.000000e+00 1.000000e+00 0.000000e+00
    outer loop
      vertex   -1.315000e+02 -8.000000e+01 2.500000e+01
      vertex   -9.850000e+01 -8.000000e+01 4.000000e+01
      vertex   -9.850000e+01 -8.000000e+01 2.500000e+01
    endloop
  endfacet
  facet normal -1.000000e+00 0.000000e+00 0.000000e+00
    outer loop
      vertex   -9.850000e+01 -8.000000e+01 4.000000e+01
      vertex   -9.850000e+01 -4.700000e+01 4.000000e+01
      vertex   -9.850000e+01 -8.000000e+01 2.500000e+01
    endloop
  endfacet
  facet normal -1.000000e+00 0.000000e+00 0.000000e+00
    outer loop
      vertex   -9.850000e+01 -8.000000e+01 2.500000e+01
      vertex   -9.850000e+01 -4.700000e+01 4.000000e+01
      vertex   -9.850000e+01 -4.700000e+01 2.500000e+01
    endloop
  endfacet
  facet normal -0.000000e+00 -1.000000e+00 -0.000000e+00
    outer loop
      vertex   -9.850000e+01 -4.700000e+01 5.000000e+01
      vertex   -1.315000e+02 -4.700000e+01 5.000000e+01
      vertex   -9.850000e+01 -4.700000e+01 4.000000e+01
    endloop
  endfacet
  facet normal 0.000000e+00 -1.000000e+00 0.000000e+00
    outer loop
      vertex   -9.850000e+01 -4.700000e+01 4.000000e+01
      vertex   -1.315000e+02 -4.700000e+01 5.000000e+01
      vertex   -1.315000e+02 -4.700000e+01 4.000000e+01
    endloop
  endfacet
  facet normal -0.000000e+00 -1.000000e+00 -0.000000e+00
    outer loop
      vertex   -9.850000e+01 -4.700000e+01 4.000000e+01
      vertex   -1.315000e+02 -4.700000e+01 4.000000e+01
      vertex   -9.850000e+01 -4.700000e+01 2.500000e+01
    endloop
  endfacet
  facet normal 0.000000e+00 -1.000000e+00 0.000000e+00
    outer loop
      vertex   -9.850000e+01 -4.700000e+01 2.500000e+01
      vertex   -1.315000e+02 -4.700000e+01 4.000000e+01
      vertex   -1.315000e+02 -4.700000e+01 2.500000e+01
    endloop
  endfacet
  facet normal 0.000000e+00 0.000000e+00 1.000000e+00
    outer loop
      vertex   -1.315000e+02 -8.000000e+01 2.500000e+01
      vertex   -9.850000e+01 -8.000000e+01 2.500000e+01
      vertex   -1.315000e+02 -4.700000e+01 2.500000e+01
    endloop
  endfacet
  facet normal -0.000000e+00 0.000000e+00 1.000000e+00
    outer loop
      vertex   -1.315000e+02 -4.700000e+01 2.500000e+01
      vertex   -9.850000e+01 -8.000000e+01 2.500000e+01
      vertex   -9.850000e+01 -4.700000e+01 2.500000e+01
    endloop
  endfacet
  facet normal 1.000000e+00 0.000000e+00 0.000000e+00
    outer loop
      vertex   -1.315000e+02 -1.500000e+02 4.000000e+01
      vertex   -1.315000e+02 -1.830000e+02 4.000000e+01
      vertex   -1.315000e+02 -1.500000e+02 2.500000e+01
    endloop
  endfacet
  facet normal 1.000000e+00 0.000000e+00 0.000000e+00
    outer loop
      vertex   -1.315000e+02 -1.500000e+02 2.500000e+01
      vertex   -1.315000e+02 -1.830000e+02 4.000000e+01
      vertex   -1.315000e+02 -1.830000e+02 2.500000e+01
    endloop
  endfacet
  facet normal -0.000000e+00 1.000000e+00 0.000000e+00
    outer loop
      vertex   -1.315000e+02 -1.830000e+02 5.000000e+01
      vertex   -9.850000e+01 -1.830000e+02 5.000000e+01
      vertex   -1.315000e+02 -1.830000e+02 4.000000e+01
    endloop
  endfacet
  facet normal 0.000000e+00 1.000000e+00 0.000000e+00
    outer loop
      vertex   -1.315000e+02 -1.830000e+02 4.000000e+01
      vertex   -9.850000e+01 -1.830000e+02 5.000000e+01
      vertex   -9.850000e+01 -1.830000e+02 4.000000e+01
    endloop
  endfacet
  facet normal -0.000000e+00 1.000000e+00 0.000000e+00
    outer loop
      vertex   -1.315000e+02 -1.830000e+02 4.000000e+01
      vertex   -9.850000e+01 -1.830000e+02 4.000000e+01
      vertex   -1.315000e+02 -1.830000e+02 2.500000e+01
    endloop
  endfacet
  facet normal 0.000000e+00 1.000000e+00 0.000000e+00
    outer loop
      vertex   -1.315000e+02 -1.830000e+02 2.500000e+01
      vertex   -9.850000e+01 -1.830000e+02 4.000000e+01
      vertex   -9.850000e+01 -1.830000e+02 2.500000e+01
    endloop
  endfacet
  facet normal -1.000000e+00 0.000000e+00 0.000000e+00
    outer loop
      vertex   -9.850000e+01 -1.830000e+02 4.000000e+01
      vertex   -9.850000e+01 -1.500000e+02 4.000000e+01
      vertex   -9.850000e+01 -1.830000e+02 2.500000e+01
    endloop
  endfacet
  facet normal -1.000000e+00 0.000000e+00 0.000000e+00
    outer loop
      vertex   -9.850000e+01 -1.830000e+02 2.500000e+01
      vertex   -9.850000e+01 -1.500000e+02 4.000000e+01
      vertex   -9.850000e+01 -1.500000e+02 2.500000e+01
    endloop
  endfacet
  facet normal -0.000000e+00 -1.000000e+00 -0.000000e+00
    outer loop
      vertex   -9.850000e+01 -1.500000e+02 5.000000e+01
      vertex   -1.315000e+02 -1.500000e+02 5.000000e+01
      vertex   -9.850000e+01 -1.500000e+02 4.000000e+01
    endloop
  endfacet
  facet normal 0.000000e+00 -1.000000e+00 0.000000e+00
    outer loop
      vertex   -9.850000e+01 -1.500000e+02 4.000000e+01
      vertex   -1.315000e+02 -1.500000e+02 5.000000e+01
      vertex   -1.315000e+02 -1.500000e+02 4.000000e+01
    endloop
  endfacet
  facet normal -0.000000e+00 -1.000000e+00 -0.000000e+00
    outer loop
      vertex   -9.850000e+01 -1.500000e+02 4.000000e+01
      vertex   -1.315000e+02 -1.500000e+02 4.000000e+01
      vertex   -9.850000e+01 -1.500000e+02 2.500000e+01
    endloop
  endfacet
  facet normal 0.000000e+00 -1.000000e+00 0.000000e+00
    outer loop
      vertex   -9.850000e+01 -1.500000e+02 2.500000e+01
      vertex   -1.315000e+02 -1.500000e+02 4.000000e+01
      vertex   -1.315000e+02 -1.500000e+02 2.500000e+01
    endloop
  endfacet
  facet normal 0.000000e+00 0.000000e+00 1.000000e+00
    outer loop
      vertex   -1.315000e+02 -1.830000e+02 2.500000e+01
      vertex   -9.850000e+01 -1.830000e+02 2.500000e+01
      vertex   -1.315000e+02 -1.500000e+02 2.500000e+01
    endloop
  endfacet
  facet normal -0.000000e+00 0.000000e+00 1.000000e+00
    outer loop
      vertex   -1.315000e+02 -1.500000e+02 2.500000e+01
      vertex   -9.850000e+01 -1.830000e+02 2.500000e+01
      vertex   -9.850000e+01 -1.500000e+02 2.500000e+01
    endloop
  endfacet
  facet normal -1.000000e+00 0.000000e+00 0.000000e+00
    outer loop
      vertex   -5.850000e+01 -1.830000e+02 4.000000e+01
      vertex   -5.850000e+01 -2.165000e+02 4.000000e+01
      vertex   -5.850000e+01 -1.830000e+02 5.000000e+01
    endloop
  endfacet
  facet normal -1.000000e+00 -0.000000e+00 0.000000e+00
    outer loop
      vertex   -5.850000e+01 -1.830000e+02 5.000000e+01
      vertex   -5.850000e+01 -2.165000e+02 4.000000e+01
      vertex   -5.850000e+01 -2.165000e+02 5.000000e+01
    endloop
  endfacet
  facet normal -1.000000e+00 0.000000e+00 0.000000e+00
    outer loop
      vertex   -5.850000e+01 -4.700000e+01 5.000000e+01
      vertex   -5.850000e+01 -1.350000e+01 5.000000e+01
      vertex   -5.850000e+01 -4.700000e+01 4.000000e+01
    endloop
  endfacet
  facet normal -1.000000e+00 0.000000e+00 0.000000e+00
    outer loop
      vertex   -5.850000e+01 -4.700000e+01 4.000000e+01
      vertex   -5.850000e+01 -1.350000e+01 5.000000e+01
      vertex   -5.850000e+01 -1.350000e+01 4.000000e+01
    endloop
  endfacet
  facet normal -1.000000e+00 0.000000e+00 0.000000e+00
    outer loop
      vertex   -5.850000e+01 -8.000000e+01 4.000000e+01
      vertex   -5.850000e+01 -1.500000e+02 4.000000e+01
      vertex   -5.850000e+01 -8.000000e+01 5.000000e+01
    endloop
  endfacet
  facet normal -1.000000e+00 -0.000000e+00 0.000000e+00
    outer loop
      vertex   -5.850000e+01 -8.000000e+01 5.000000e+01
      vertex   -5.850000e+01 -1.500000e+02 4.000000e+01
      vertex   -5.850000e+01 -1.500000e+02 5.000000e+01
    endloop
  endfacet
  facet normal 1.000000e+00 0.000000e+00 0.000000e+00
    outer loop
      vertex   -1.715000e+02 -4.700000e+01 4.000000e+01
      vertex   -1.715000e+02 -1.350000e+01 4.000000e+01
      vertex   -1.715000e+02 -4.700000e+01 5.000000e+01
    endloop
  endfacet
  facet normal 1.000000e+00 -0.000000e+00 0.000000e+00
    outer loop
      vertex   -1.715000e+02 -4.700000e+01 5.000000e+01
      vertex   -1.715000e+02 -1.350000e+01 4.000000e+01
      vertex   -1.715000e+02 -1.350000e+01 5.000000e+01
    endloop
  endfacet
  facet normal 1.000000e+00 0.000000e+00 0.000000e+00
    outer loop
      vertex   -1.715000e+02 -1.830000e+02 5.000000e+01
      vertex   -1.715000e+02 -2.165000e+02 5.000000e+01
      vertex   -1.715000e+02 -1.830000e+02 4.000000e+01
    endloop
  endfacet
  facet normal 1.000000e+00 0.000000e+00 0.000000e+00
    outer loop
      vertex   -1.715000e+02 -1.830000e+02 4.000000e+01
      vertex   -1.715000e+02 -2.165000e+02 5.000000e+01
      vertex   -1.715000e+02 -2.165000e+02 4.000000e+01
    endloop
  endfacet
  facet normal 1.000000e+00 0.000000e+00 0.000000e+00
    outer loop
      vertex   -1.715000e+02 -1.500000e+02 4.000000e+01
      vertex   -1.715000e+02 -8.000000e+01 4.000000e+01
      vertex   -1.715000e+02 -1.500000e+02 5.000000e+01
    endloop
  endfacet
  facet normal 1.000000e+00 -0.000000e+00 0.000000e+00
    outer loop
      vertex   -1.715000e+02 -1.500000e+02 5.000000e+01
      vertex   -1.715000e+02 -8.000000e+01 4.000000e+01
      vertex   -1.715000e+02 -8.000000e+01 5.000000e+01
    endloop
  endfacet
  facet normal 1.000000e+00 0.000000e+00 0.000000e+00
    outer loop
      vertex   -9.850000e+01 -1.830000e+02 5.000000e+01
      vertex   -9.850000e+01 -2.165000e+02 5.000000e+01
      vertex   -9.850000e+01 -1.830000e+02 4.000000e+01
    endloop
  endfacet
  facet normal 1.000000e+00 0.000000e+00 0.000000e+00
    outer loop
      vertex   -9.850000e+01 -1.830000e+02 4.000000e+01
      vertex   -9.850000e+01 -2.165000e+02 5.000000e+01
      vertex   -9.850000e+01 -2.165000e+02 4.000000e+01
    endloop
  endfacet
  facet normal 1.000000e+00 0.000000e+00 0.000000e+00
    outer loop
      vertex   -9.850000e+01 -4.700000e+01 4.000000e+01
      vertex   -9.850000e+01 -1.350000e+01 4.000000e+01
      vertex   -9.850000e+01 -4.700000e+01 5.000000e+01
    endloop
  endfacet
  facet normal 1.000000e+00 -0.000000e+00 0.000000e+00
    outer loop
      vertex   -9.850000e+01 -4.700000e+01 5.000000e+01
      vertex   -9.850000e+01 -1.350000e+01 4.000000e+01
      vertex   -9.850000e+01 -1.350000e+01 5.000000e+01
    endloop
  endfacet
  facet normal 1.000000e+00 0.000000e+00 0.000000e+00
    outer loop
      vertex   -9.850000e+01 -8.000000e+01 5.000000e+01
      vertex   -9.850000e+01 -1.500000e+02 5.000000e+01
      vertex   -9.850000e+01 -8.000000e+01 4.000000e+01
    endloop
  endfacet
  facet normal 1.000000e+00 0.000000e+00 0.000000e+00
    outer loop
      vertex   -9.850000e+01 -8.000000e+01 4.000000e+01
      vertex   -9.850000e+01 -1.500000e+02 5.000000e+01
      vertex   -9.850000e+01 -1.500000e+02 4.000000e+01
    endloop
  endfacet
  facet normal 0.000000e+00 0.000000e+00 1.000000e+00
    outer loop
      vertex   -9.850000e+01 -8.000000e+01 5.000000e+01
      vertex   -1.315000e+02 -8.000000e+01 5.000000e+01
      vertex   -9.850000e+01 -1.500000e+02 5.000000e+01
    endloop
  endfacet
  facet normal 0.000000e+00 0.000000e+00 1.000000e+00
    outer loop
      vertex   -9.850000e+01 -1.500000e+02 5.000000e+01
      vertex   -1.315000e+02 -8.000000e+01 5.000000e+01
      vertex   -1.315000e+02 -1.500000e+02 5.000000e+01
    endloop
  endfacet
  facet normal -1.000000e+00 0.000000e+00 0.000000e+00
    outer loop
      vertex   -1.315000e+02 -1.830000e+02 4.000000e+01
      vertex   -1.315000e+02 -2.165000e+02 4.000000e+01
      vertex   -1.315000e+02 -1.830000e+02 5.000000e+01
    endloop
  endfacet
  facet normal -1.000000e+00 -0.000000e+00 0.000000e+00
    outer loop
      vertex   -1.315000e+02 -1.830000e+02 5.000000e+01
      vertex   -1.315000e+02 -2.165000e+02 4.000000e+01
      vertex   -1.315000e+02 -2.165000e+02 5.000000e+01
    endloop
  endfacet
  facet normal -1.000000e+00 0.000000e+00 0.000000e+00
    outer loop
      vertex   -1.315000e+02 -4.700000e+01 5.000000e+01
      vertex   -1.315000e+02 -1.350000e+01 5.000000e+01
      vertex   -1.315000e+02 -4.700000e+01 4.000000e+01
    endloop
  endfacet
  facet normal -1.000000e+00 0.000000e+00 0.000000e+00
    outer loop
      vertex   -1.315000e+02 -4.700000e+01 4.000000e+01
      vertex   -1.315000e+02 -1.350000e+01 5.000000e+01
      vertex   -1.315000e+02 -1.350000e+01 4.000000e+01
    endloop
  endfacet
  facet normal -1.000000e+00 0.000000e+00 0.000000e+00
    outer loop
      vertex   -1.315000e+02 -8.000000e+01 4.000000e+01
      vertex   -1.315000e+02 -1.500000e+02 4.000000e+01
      vertex   -1.315000e+02 -8.000000e+01 5.000000e+01
    endloop
  endfacet
  facet normal -1.000000e+00 -0.000000e+00 0.000000e+00
    outer loop
      vertex   -1.315000e+02 -8.000000e+01 5.000000e+01
      vertex   -1.315000e+02 -1.500000e+02 4.000000e+01
      vertex   -1.315000e+02 -1.500000e+02 5.000000e+01
    endloop
  endfacet
  facet normal -0.000000e+00 -1.000000e+00 -0.000000e+00
    outer loop
      vertex   -1.315000e+02 -1.350000e+01 5.000000e+01
      vertex   -1.715000e+02 -1.350000e+01 5.000000e+01
      vertex   -1.315000e+02 -1.350000e+01 4.000000e+01
    endloop
  endfacet
  facet normal 0.000000e+00 -1.000000e+00 0.000000e+00
    outer loop
      vertex   -1.315000e+02 -1.350000e+01 4.000000e+01
      vertex   -1.715000e+02 -1.350000e+01 5.000000e+01
      vertex   -1.715000e+02 -1.350000e+01 4.000000e+01
    endloop
  endfacet
  facet normal -0.000000e+00 1.000000e+00 0.000000e+00
    outer loop
      vertex   -1.715000e+02 -2.165000e+02 5.000000e+01
      vertex   -1.315000e+02 -2.165000e+02 5.000000e+01
      vertex   -1.715000e+02 -2.165000e+02 4.000000e+01
    endloop
  endfacet
  facet normal 0.000000e+00 1.000000e+00 0.000000e+00
    outer loop
      vertex   -1.715000e+02 -2.165000e+02 4.000000e+01
      vertex   -1.315000e+02 -2.165000e+02 5.000000e+01
      vertex   -1.315000e+02 -2.165000e+02 4.000000e+01
    endloop
  endfacet
  facet normal 0.000000e+00 0.000000e+00 1.000000e+00
    outer loop
      vertex   -1.715000e+02 -2.165000e+02 4.000000e+01
      vertex   -1.315000e+02 -2.165000e+02 4.000000e+01
      vertex   -1.715000e+02 -1.830000e+02 4.000000e+01
    endloop
  endfacet
  facet normal -0.000000e+00 0.000000e+00 1.000000e+00
    outer loop
      vertex   -1.715000e+02 -1.830000e+02 4.000000e+01
      vertex   -1.315000e+02 -2.165000e+02 4.000000e+01
      vertex   -1.315000e+02 -1.830000e+02 4.000000e+01
    endloop
  endfacet
  facet normal 0.000000e+00 0.000000e+00 1.000000e+00
    outer loop
      vertex   -1.715000e+02 -1.830000e+02 4.000000e+01
      vertex   -1.315000e+02 -1.830000e+02 4.000000e+01
      vertex   -1.715000e+02 -1.500000e+02 4.000000e+01
    endloop
  endfacet
  facet normal -0.000000e+00 0.000000e+00 1.000000e+00
    outer loop
      vertex   -1.715000e+02 -1.500000e+02 4.000000e+01
      vertex   -1.315000e+02 -1.830000e+02 4.000000e+01
      vertex   -1.315000e+02 -1.500000e+02 4.000000e+01
    endloop
  endfacet
  facet normal 0.000000e+00 0.000000e+00 1.000000e+00
    outer loop
      vertex   -1.715000e+02 -1.500000e+02 4.000000e+01
      vertex   -1.315000e+02 -1.500000e+02 4.000000e+01
      vertex   -1.715000e+02 -8.000000e+01 4.000000e+01
    endloop
  endfacet
  facet normal -0.000000e+00 0.000000e+00 1.000000e+00
    outer loop
      vertex   -1.715000e+02 -8.000000e+01 4.000000e+01
      vertex   -1.315000e+02 -1.500000e+02 4.000000e+01
      vertex   -1.315000e+02 -8.000000e+01 4.000000e+01
    endloop
  endfacet
  facet normal 0.000000e+00 0.000000e+00 1.000000e+00
    outer loop
      vertex   -1.715000e+02 -8.000000e+01 4.000000e+01
      vertex   -1.315000e+02 -8.000000e+01 4.000000e+01
      vertex   -1.715000e+02 -4.700000e+01 4.000000e+01
    endloop
  endfacet
  facet normal -0.000000e+00 0.000000e+00 1.000000e+00
    outer loop
      vertex   -1.715000e+02 -4.700000e+01 4.000000e+01
      vertex   -1.315000e+02 -8.000000e+01 4.000000e+01
      vertex   -1.315000e+02 -4.700000e+01 4.000000e+01
    endloop
  endfacet
  facet normal 0.000000e+00 0.000000e+00 1.000000e+00
    outer loop
      vertex   -1.715000e+02 -4.700000e+01 4.000000e+01
      vertex   -1.315000e+02 -4.700000e+01 4.000000e+01
      vertex   -1.715000e+02 -1.350000e+01 4.000000e+01
    endloop
  endfacet
  facet normal -0.000000e+00 0.000000e+00 1.000000e+00
    outer loop
      vertex   -1.715000e+02 -1.350000e+01 4.000000e+01
      vertex   -1.315000e+02 -4.700000e+01 4.000000e+01
      vertex   -1.315000e+02 -1.350000e+01 4.000000e+01
    endloop
  endfacet
  facet normal -0.000000e+00 -1.000000e+00 -0.000000e+00
    outer loop
      vertex   -5.850000e+01 -1.350000e+01 5.000000e+01
      vertex   -9.850000e+01 -1.350000e+01 5.000000e+01
      vertex   -5.850000e+01 -1.350000e+01 4.000000e+01
    endloop
  endfacet
  facet normal 0.000000e+00 -1.000000e+00 0.000000e+00
    outer loop
      vertex   -5.850000e+01 -1.350000e+01 4.000000e+01
      vertex   -9.850000e+01 -1.350000e+01 5.000000e+01
      vertex   -9.850000e+01 -1.350000e+01 4.000000e+01
    endloop
  endfacet
  facet normal -0.000000e+00 1.000000e+00 0.000000e+00
    outer loop
      vertex   -9.850000e+01 -2.165000e+02 5.000000e+01
      vertex   -5.850000e+01 -2.165000e+02 5.000000e+01
      vertex   -9.850000e+01 -2.165000e+02 4.000000e+01
    endloop
  endfacet
  facet normal 0.000000e+00 1.000000e+00 0.000000e+00
    outer loop
      vertex   -9.850000e+01 -2.165000e+02 4.000000e+01
      vertex   -5.850000e+01 -2.165000e+02 5.000000e+01
      vertex   -5.850000e+01 -2.165000e+02 4.000000e+01
    endloop
  endfacet
  facet normal 0.000000e+00 0.000000e+00 1.000000e+00
    outer loop
      vertex   -5.850000e+01 -1.350000e+01 4.000000e+01
      vertex   -9.850000e+01 -1.350000e+01 4.000000e+01
      vertex   -5.850000e+01 -4.700000e+01 4.000000e+01
    endloop
  endfacet
  facet normal 0.000000e+00 0.000000e+00 1.000000e+00
    outer loop
      vertex   -5.850000e+01 -4.700000e+01 4.000000e+01
      vertex   -9.850000e+01 -1.350000e+01 4.000000e+01
      vertex   -9.850000e+01 -4.700000e+01 4.000000e+01
    endloop
  endfacet
  facet normal 0.000000e+00 0.000000e+00 1.000000e+00
    outer loop
      vertex   -5.850000e+01 -4.700000e+01 4.000000e+01
      vertex   -9.850000e+01 -4.700000e+01 4.000000e+01
      vertex   -5.850000e+01 -8.000000e+01 4.000000e+01
    endloop
  endfacet
  facet normal 0.000000e+00 0.000000e+00 1.000000e+00
    outer loop
      vertex   -5.850000e+01 -8.000000e+01 4.000000e+01
      vertex   -9.850000e+01 -4.700000e+01 4.000000e+01
      vertex   -9.850000e+01 -8.000000e+01 4.000000e+01
    endloop
  endfacet
  facet normal 0.000000e+00 0.000000e+00 1.000000e+00
    outer loop
      vertex   -5.850000e+01 -8.000000e+01 4.000000e+01
      vertex   -9.850000e+01 -8.000000e+01 4.000000e+01
      vertex   -5.850000e+01 -1.500000e+02 4.000000e+01
    endloop
  endfacet
  facet normal 0.000000e+00 0.000000e+00 1.000000e+00
    outer loop
      vertex   -5.850000e+01 -1.500000e+02 4.000000e+01
      vertex   -9.850000e+01 -8.000000e+01 4.000000e+01
      vertex   -9.850000e+01 -1.500000e+02 4.000000e+01
    endloop
  endfacet
  facet normal 0.000000e+00 0.000000e+00 1.000000e+00
    outer loop
      vertex   -5.850000e+01 -1.500000e+02 4.000000e+01
      vertex   -9.850000e+01 -1.500000e+02 4.000000e+01
      vertex   -5.850000e+01 -1.830000e+02 4.000000e+01
    endloop
  endfacet
  facet normal 0.000000e+00 0.000000e+00 1.000000e+00
    outer loop
      vertex   -5.850000e+01 -1.830000e+02 4.000000e+01
      vertex   -9.850000e+01 -1.500000e+02 4.000000e+01
      vertex   -9.850000e+01 -1.830000e+02 4.000000e+01
    endloop
  endfacet
  facet normal 0.000000e+00 0.000000e+00 1.000000e+00
    outer loop
      vertex   -5.850000e+01 -1.830000e+02 4.000000e+01
      vertex   -9.850000e+01 -1.830000e+02 4.000000e+01
      vertex   -5.850000e+01 -2.165000e+02 4.000000e+01
    endloop
  endfacet
  facet normal 0.000000e+00 0.000000e+00 1.000000e+00
    outer loop
      vertex   -5.850000e+01 -2.165000e+02 4.000000e+01
      vertex   -9.850000e+01 -1.830000e+02 4.000000e+01
      vertex   -9.850000e+01 -2.165000e+02 4.000000e+01
    endloop
  endfacet
  facet normal 0.000000e+00 -1.000000e+00 0.000000e+00
    outer loop
      vertex   -2.300000e+02 -2.300000e+02 0.000000e+00
      vertex   0.000000e+00 -2.300000e+02 0.000000e+00
      vertex   -2.300000e+02 -2.300000e+02 5.000000e+01
    endloop
  endfacet
  facet normal 0.000000e+00 -1.000000e+00 0.000000e+00
    outer loop
      vertex   -2.300000e+02 -2.300000e+02 5.000000e+01
      vertex   0.000000e+00 -2.300000e+02 0.000000e+00
      vertex   0.000000e+00 -2.300000e+02 5.000000e+01
    endloop
  endfacet
  facet normal -1.000000e+00 0.000000e+00 0.000000e+00
    outer loop
      vertex   -2.300000e+02 0.000000e+00 0.000000e+00
      vertex   -2.300000e+02 -2.300000e+02 0.000000e+00
      vertex   -2.300000e+02 0.000000e+00 5.000000e+01
    endloop
  endfacet
  facet normal -1.000000e+00 -0.000000e+00 0.000000e+00
    outer loop
      vertex   -2.300000e+02 0.000000e+00 5.000000e+01
      vertex   -2.300000e+02 -2.300000e+02 0.000000e+00
      vertex   -2.300000e+02 -2.300000e+02 5.000000e+01
    endloop
  endfacet
  facet normal 0.000000e+00 1.000000e+00 -0.000000e+00
    outer loop
      vertex   0.000000e+00 0.000000e+00 0.000000e+00
      vertex   -2.300000e+02 0.000000e+00 0.000000e+00
      vertex   0.000000e+00 0.000000e+00 5.000000e+01
    endloop
  endfacet
  facet normal 0.000000e+00 1.000000e+00 0.000000e+00
    outer loop
      vertex   0.000000e+00 0.000000e+00 5.000000e+01
      vertex   -2.300000e+02 0.000000e+00 0.000000e+00
      vertex   -2.300000e+02 0.000000e+00 5.000000e+01
    endloop
  endfacet
  facet normal 1.000000e+00 0.000000e+00 0.000000e+00
    outer loop
      vertex   0.000000e+00 -2.300000e+02 0.000000e+00
      vertex   0.000000e+00 0.000000e+00 0.000000e+00
      vertex   0.000000e+00 -2.300000e+02 5.000000e+01
    endloop
  endfacet
  facet normal 1.000000e+00 -0.000000e+00 0.000000e+00
    outer loop
      vertex   0.000000e+00 -2.300000e+02 5.000000e+01
      vertex   0.000000e+00 0.000000e+00 0.000000e+00
      vertex   0.000000e+00 0.000000e+00 5.000000e+01
    endloop
  endfacet
  facet normal 0.000000e+00 0.000000e+00 1.000000e+00
    outer loop
      vertex   0.000000e+00 0.000000e+00 5.000000e+01
      vertex   -3.550000e+01 -8.000000e+01 5.000000e+01
      vertex   0.000000e+00 -2.300000e+02 5.000000e+01
    endloop
  endfacet
  facet normal 0.000000e+00 0.000000e+00 1.000000e+00
    outer loop
      vertex   0.000000e+00 -2.300000e+02 5.000000e+01
      vertex   -3.550000e+01 -8.000000e+01 5.000000e+01
      vertex   -3.550000e+01 -1.500000e+02 5.000000e+01
    endloop
  endfacet
  facet normal 0.000000e+00 0.000000e+00 1.000000e+00
    outer loop
      vertex   0.000000e+00 -2.300000e+02 5.000000e+01
      vertex   -3.550000e+01 -1.500000e+02 5.000000e+01
      vertex   -3.550000e+01 -1.830000e+02 5.000000e+01
    endloop
  endfacet
  facet normal -0.000000e+00 0.000000e+00 1.000000e+00
    outer loop
      vertex   -2.300000e+02 0.000000e+00 5.000000e+01
      vertex   -9.850000e+01 -1.350000e+01 5.000000e+01
      vertex   0.000000e+00 0.000000e+00 5.000000e+01
    endloop
  endfacet
  facet normal 0.000000e+00 0.000000e+00 1.000000e+00
    outer loop
      vertex   0.000000e+00 0.000000e+00 5.000000e+01
      vertex   -9.850000e+01 -1.350000e+01 5.000000e+01
      vertex   -5.850000e+01 -1.350000e+01 5.000000e+01
    endloop
  endfacet
  facet normal 0.000000e+00 0.000000e+00 1.000000e+00
    outer loop
      vertex   0.000000e+00 0.000000e+00 5.000000e+01
      vertex   -5.850000e+01 -1.350000e+01 5.000000e+01
      vertex   -3.550000e+01 -4.700000e+01 5.000000e+01
    endloop
  endfacet
  facet normal 0.000000e+00 0.000000e+00 1.000000e+00
    outer loop
      vertex   -3.550000e+01 -4.700000e+01 5.000000e+01
      vertex   -5.850000e+01 -1.350000e+01 5.000000e+01
      vertex   -5.850000e+01 -4.700000e+01 5.000000e+01
    endloop
  endfacet
  facet normal 0.000000e+00 0.000000e+00 1.000000e+00
    outer loop
      vertex   -2.300000e+02 -2.300000e+02 5.000000e+01
      vertex   -1.945000e+02 -8.000000e+01 5.000000e+01
      vertex   -2.300000e+02 0.000000e+00 5.000000e+01
    endloop
  endfacet
  facet normal 0.000000e+00 0.000000e+00 1.000000e+00
    outer loop
      vertex   -2.300000e+02 0.000000e+00 5.000000e+01
      vertex   -1.945000e+02 -8.000000e+01 5.000000e+01
      vertex   -1.945000e+02 -4.700000e+01 5.000000e+01
    endloop
  endfacet
  facet normal 0.000000e+00 0.000000e+00 1.000000e+00
    outer loop
      vertex   -2.300000e+02 0.000000e+00 5.000000e+01
      vertex   -1.945000e+02 -4.700000e+01 5.000000e+01
      vertex   -1.715000e+02 -1.350000e+01 5.000000e+01
    endloop
  endfacet
  facet normal 0.000000e+00 0.000000e+00 1.000000e+00
    outer loop
      vertex   -1.715000e+02 -1.350000e+01 5.000000e+01
      vertex   -1.945000e+02 -4.700000e+01 5.000000e+01
      vertex   -1.715000e+02 -4.700000e+01 5.000000e+01
    endloop
  endfacet
  facet normal 0.000000e+00 0.000000e+00 1.000000e+00
    outer loop
      vertex   0.000000e+00 -2.300000e+02 5.000000e+01
      vertex   -1.315000e+02 -2.165000e+02 5.000000e+01
      vertex   -2.300000e+02 -2.300000e+02 5.000000e+01
    endloop
  endfacet
  facet normal 0.000000e+00 0.000000e+00 1.000000e+00
    outer loop
      vertex   -2.300000e+02 -2.300000e+02 5.000000e+01
      vertex   -1.315000e+02 -2.165000e+02 5.000000e+01
      vertex   -1.715000e+02 -2.165000e+02 5.000000e+01
    endloop
  endfacet
  facet normal 0.000000e+00 0.000000e+00 1.000000e+00
    outer loop
      vertex   -2.300000e+02 -2.300000e+02 5.000000e+01
      vertex   -1.715000e+02 -2.165000e+02 5.000000e+01
      vertex   -1.945000e+02 -1.830000e+02 5.000000e+01
    endloop
  endfacet
  facet normal -0.000000e+00 0.000000e+00 1.000000e+00
    outer loop
      vertex   -1.945000e+02 -1.830000e+02 5.000000e+01
      vertex   -1.715000e+02 -2.165000e+02 5.000000e+01
      vertex   -1.715000e+02 -1.830000e+02 5.000000e+01
    endloop
  endfacet
  facet normal 0.000000e+00 0.000000e+00 1.000000e+00
    outer loop
      vertex   -3.550000e+01 -8.000000e+01 5.000000e+01
      vertex   -5.850000e+01 -8.000000e+01 5.000000e+01
      vertex   -3.550000e+01 -1.500000e+02 5.000000e+01
    endloop
  endfacet
  facet normal 0.000000e+00 0.000000e+00 1.000000e+00
    outer loop
      vertex   -3.550000e+01 -1.500000e+02 5.000000e+01
      vertex   -5.850000e+01 -8.000000e+01 5.000000e+01
      vertex   -5.850000e+01 -1.500000e+02 5.000000e+01
    endloop
  endfacet
  facet normal -0.000000e+00 0.000000e+00 1.000000e+00
    outer loop
      vertex   -5.850000e+01 -1.830000e+02 5.000000e+01
      vertex   -5.850000e+01 -2.165000e+02 5.000000e+01
      vertex   -3.550000e+01 -1.830000e+02 5.000000e+01
    endloop
  endfacet
  facet normal 0.000000e+00 0.000000e+00 1.000000e+00
    outer loop
      vertex   -3.550000e+01 -1.830000e+02 5.000000e+01
      vertex   -5.850000e+01 -2.165000e+02 5.000000e+01
      vertex   0.000000e+00 -2.300000e+02 5.000000e+01
    endloop
  endfacet
  facet normal 0.000000e+00 0.000000e+00 1.000000e+00
    outer loop
      vertex   -5.850000e+01 -2.165000e+02 5.000000e+01
      vertex   -9.850000e+01 -2.165000e+02 5.000000e+01
      vertex   0.000000e+00 -2.300000e+02 5.000000e+01
    endloop
  endfacet
  facet normal 0.000000e+00 0.000000e+00 1.000000e+00
    outer loop
      vertex   0.000000e+00 -2.300000e+02 5.000000e+01
      vertex   -9.850000e+01 -2.165000e+02 5.000000e+01
      vertex   -1.315000e+02 -2.165000e+02 5.000000e+01
    endloop
  endfacet
  facet normal 0.000000e+00 0.000000e+00 1.000000e+00
    outer loop
      vertex   -9.850000e+01 -1.830000e+02 5.000000e+01
      vertex   -1.315000e+02 -1.830000e+02 5.000000e+01
      vertex   -9.850000e+01 -2.165000e+02 5.000000e+01
    endloop
  endfacet
  facet normal 0.000000e+00 0.000000e+00 1.000000e+00
    outer loop
      vertex   -9.850000e+01 -2.165000e+02 5.000000e+01
      vertex   -1.315000e+02 -1.830000e+02 5.000000e+01
      vertex   -1.315000e+02 -2.165000e+02 5.000000e+01
    endloop
  endfacet
  facet normal 0.000000e+00 -0.000000e+00 1.000000e+00
    outer loop
      vertex   -1.945000e+02 -1.830000e+02 5.000000e+01
      vertex   -1.945000e+02 -1.500000e+02 5.000000e+01
      vertex   -2.300000e+02 -2.300000e+02 5.000000e+01
    endloop
  endfacet
  facet normal 0.000000e+00 0.000000e+00 1.000000e+00
    outer loop
      vertex   -2.300000e+02 -2.300000e+02 5.000000e+01
      vertex   -1.945000e+02 -1.500000e+02 5.000000e+01
      vertex   -1.945000e+02 -8.000000e+01 5.000000e+01
    endloop
  endfacet
  facet normal 0.000000e+00 0.000000e+00 1.000000e+00
    outer loop
      vertex   -1.945000e+02 -1.500000e+02 5.000000e+01
      vertex   -1.715000e+02 -1.500000e+02 5.000000e+01
      vertex   -1.945000e+02 -8.000000e+01 5.000000e+01
    endloop
  endfacet
  facet normal -0.000000e+00 0.000000e+00 1.000000e+00
    outer loop
      vertex   -1.945000e+02 -8.000000e+01 5.000000e+01
      vertex   -1.715000e+02 -1.500000e+02 5.000000e+01
      vertex   -1.715000e+02 -8.000000e+01 5.000000e+01
    endloop
  endfacet
  facet normal 0.000000e+00 -0.000000e+00 1.000000e+00
    outer loop
      vertex   -1.715000e+02 -1.350000e+01 5.000000e+01
      vertex   -1.315000e+02 -1.350000e+01 5.000000e+01
      vertex   -2.300000e+02 0.000000e+00 5.000000e+01
    endloop
  endfacet
  facet normal 0.000000e+00 0.000000e+00 1.000000e+00
    outer loop
      vertex   -2.300000e+02 0.000000e+00 5.000000e+01
      vertex   -1.315000e+02 -1.350000e+01 5.000000e+01
      vertex   -9.850000e+01 -1.350000e+01 5.000000e+01
    endloop
  endfacet
  facet normal 0.000000e+00 0.000000e+00 1.000000e+00
    outer loop
      vertex   -1.315000e+02 -4.700000e+01 5.000000e+01
      vertex   -9.850000e+01 -4.700000e+01 5.000000e+01
      vertex   -1.315000e+02 -1.350000e+01 5.000000e+01
    endloop
  endfacet
  facet normal -0.000000e+00 0.000000e+00 1.000000e+00
    outer loop
      vertex   -1.315000e+02 -1.350000e+01 5.000000e+01
      vertex   -9.850000e+01 -4.700000e+01 5.000000e+01
      vertex   -9.850000e+01 -1.350000e+01 5.000000e+01
    endloop
  endfacet
  facet normal -0.000000e+00 0.000000e+00 1.000000e+00
    outer loop
      vertex   -3.550000e+01 -4.700000e+01 5.000000e+01
      vertex   -3.550000e+01 -8.000000e+01 5.000000e+01
      vertex   0.000000e+00 0.000000e+00 5.000000e+01
    endloop
  endfacet
  facet normal 0.000000e+00 0.000000e+00 -1.000000e+00
    outer loop
      vertex   0.000000e+00 -2.300000e+02 0.000000e+00
      vertex   -2.300000e+02 -2.300000e+02 0.000000e+00
      vertex   0.000000e+00 0.000000e+00 0.000000e+00
    endloop
  endfacet
  facet normal -0.000000e+00 0.000000e+00 -1.000000e+00
    outer loop
      vertex   0.000000e+00 0.000000e+00 0.000000e+00
      vertex   -2.300000e+02 -2.300000e+02 0.000000e+00
      vertex   -2.300000e+02 0.000000e+00 0.000000e+00
    endloop
  endfacet
endsolid
