solid ASCII
  facet normal 0.000000e+00 -1.000000e+00 0.000000e+00
    outer loop
      vertex   1.680000e+02 6.500000e+01 1.050000e+02
      vertex   1.680000e+02 6.500000e+01 5.000000e+00
      vertex   1.980000e+02 6.500000e+01 1.050000e+02
    endloop
  endfacet
  facet normal 0.000000e+00 -1.000000e+00 -0.000000e+00
    outer loop
      vertex   1.980000e+02 6.500000e+01 1.050000e+02
      vertex   1.680000e+02 6.500000e+01 5.000000e+00
      vertex   1.980000e+02 6.500000e+01 5.000000e+00
    endloop
  endfacet
  facet normal -0.000000e+00 0.000000e+00 1.000000e+00
    outer loop
      vertex   1.680000e+02 9.500000e+01 1.050000e+02
      vertex   1.680000e+02 6.500000e+01 1.050000e+02
      vertex   1.980000e+02 9.500000e+01 1.050000e+02
    endloop
  endfacet
  facet normal 0.000000e+00 0.000000e+00 1.000000e+00
    outer loop
      vertex   1.980000e+02 9.500000e+01 1.050000e+02
      vertex   1.680000e+02 6.500000e+01 1.050000e+02
      vertex   1.980000e+02 6.500000e+01 1.050000e+02
    endloop
  endfacet
  facet normal 0.000000e+00 1.000000e+00 0.000000e+00
    outer loop
      vertex   1.680000e+02 9.500000e+01 4.000000e+01
      vertex   1.680000e+02 9.500000e+01 1.050000e+02
      vertex   1.980000e+02 9.500000e+01 4.000000e+01
    endloop
  endfacet
  facet normal 0.000000e+00 1.000000e+00 -0.000000e+00
    outer loop
      vertex   1.980000e+02 9.500000e+01 4.000000e+01
      vertex   1.680000e+02 9.500000e+01 1.050000e+02
      vertex   1.980000e+02 9.500000e+01 1.050000e+02
    endloop
  endfacet
  facet normal -0.000000e+00 0.000000e+00 1.000000e+00
    outer loop
      vertex   1.680000e+02 1.350000e+02 4.000000e+01
      vertex   1.680000e+02 9.500000e+01 4.000000e+01
      vertex   1.980000e+02 1.350000e+02 4.000000e+01
    endloop
  endfacet
  facet normal 0.000000e+00 0.000000e+00 1.000000e+00
    outer loop
      vertex   1.980000e+02 1.350000e+02 4.000000e+01
      vertex   1.680000e+02 9.500000e+01 4.000000e+01
      vertex   1.980000e+02 9.500000e+01 4.000000e+01
    endloop
  endfacet
  facet normal 0.000000e+00 -1.000000e+00 0.000000e+00
    outer loop
      vertex   1.680000e+02 1.350000e+02 1.050000e+02
      vertex   1.680000e+02 1.350000e+02 4.000000e+01
      vertex   1.980000e+02 1.350000e+02 1.050000e+02
    endloop
  endfacet
  facet normal 0.000000e+00 -1.000000e+00 -0.000000e+00
    outer loop
      vertex   1.980000e+02 1.350000e+02 1.050000e+02
      vertex   1.680000e+02 1.350000e+02 4.000000e+01
      vertex   1.980000e+02 1.350000e+02 4.000000e+01
    endloop
  endfacet
  facet normal -0.000000e+00 0.000000e+00 1.000000e+00
    outer loop
      vertex   1.680000e+02 1.650000e+02 1.050000e+02
      vertex   1.680000e+02 1.350000e+02 1.050000e+02
      vertex   1.980000e+02 1.650000e+02 1.050000e+02
    endloop
  endfacet
  facet normal 0.000000e+00 0.000000e+00 1.000000e+00
    outer loop
      vertex   1.980000e+02 1.650000e+02 1.050000e+02
      vertex   1.680000e+02 1.350000e+02 1.050000e+02
      vertex   1.980000e+02 1.350000e+02 1.050000e+02
    endloop
  endfacet
  facet normal 0.000000e+00 1.000000e+00 0.000000e+00
    outer loop
      vertex   1.680000e+02 1.650000e+02 5.000000e+00
      vertex   1.680000e+02 1.650000e+02 1.050000e+02
      vertex   1.980000e+02 1.650000e+02 5.000000e+00
    endloop
  endfacet
  facet normal 0.000000e+00 1.000000e+00 -0.000000e+00
    outer loop
      vertex   1.980000e+02 1.650000e+02 5.000000e+00
      vertex   1.680000e+02 1.650000e+02 1.050000e+02
      vertex   1.980000e+02 1.650000e+02 1.050000e+02
    endloop
  endfacet
  facet normal 0.000000e+00 0.000000e+00 -1.000000e+00
    outer loop
      vertex   1.680000e+02 6.500000e+01 5.000000e+00
      vertex   1.680000e+02 1.650000e+02 5.000000e+00
      vertex   1.980000e+02 6.500000e+01 5.000000e+00
    endloop
  endfacet
  facet normal 0.000000e+00 0.000000e+00 -1.000000e+00
    outer loop
      vertex   1.980000e+02 6.500000e+01 5.000000e+00
      vertex   1.680000e+02 1.650000e+02 5.000000e+00
      vertex   1.980000e+02 1.650000e+02 5.000000e+00
    endloop
  endfacet
  facet normal 1.000000e+00 0.000000e+00 0.000000e+00
    outer loop
      vertex   1.980000e+02 6.500000e+01 1.050000e+02
      vertex   1.980000e+02 6.500000e+01 5.000000e+00
      vertex   1.980000e+02 9.500000e+01 4.000000e+01
    endloop
  endfacet
  facet normal 1.000000e+00 0.000000e+00 0.000000e+00
    outer loop
      vertex   1.980000e+02 9.500000e+01 4.000000e+01
      vertex   1.980000e+02 6.500000e+01 5.000000e+00
      vertex   1.980000e+02 1.650000e+02 5.000000e+00
    endloop
  endfacet
  facet normal 1.000000e+00 -0.000000e+00 0.000000e+00
    outer loop
      vertex   1.980000e+02 9.500000e+01 4.000000e+01
      vertex   1.980000e+02 1.650000e+02 5.000000e+00
      vertex   1.980000e+02 1.350000e+02 4.000000e+01
    endloop
  endfacet
  facet normal 1.000000e+00 -0.000000e+00 0.000000e+00
    outer loop
      vertex   1.980000e+02 1.350000e+02 4.000000e+01
      vertex   1.980000e+02 1.650000e+02 5.000000e+00
      vertex   1.980000e+02 1.650000e+02 1.050000e+02
    endloop
  endfacet
  facet normal 1.000000e+00 0.000000e+00 0.000000e+00
    outer loop
      vertex   1.980000e+02 1.350000e+02 4.000000e+01
      vertex   1.980000e+02 1.650000e+02 1.050000e+02
      vertex   1.980000e+02 1.350000e+02 1.050000e+02
    endloop
  endfacet
  facet normal 1.000000e+00 0.000000e+00 -0.000000e+00
    outer loop
      vertex   1.980000e+02 9.500000e+01 4.000000e+01
      vertex   1.980000e+02 9.500000e+01 1.050000e+02
      vertex   1.980000e+02 6.500000e+01 1.050000e+02
    endloop
  endfacet
  facet normal -1.000000e+00 0.000000e+00 -0.000000e+00
    outer loop
      vertex   1.680000e+02 1.650000e+02 1.050000e+02
      vertex   1.680000e+02 1.650000e+02 5.000000e+00
      vertex   1.680000e+02 1.350000e+02 4.000000e+01
    endloop
  endfacet
  facet normal -1.000000e+00 0.000000e+00 -0.000000e+00
    outer loop
      vertex   1.680000e+02 1.350000e+02 4.000000e+01
      vertex   1.680000e+02 1.650000e+02 5.000000e+00
      vertex   1.680000e+02 6.500000e+01 5.000000e+00
    endloop
  endfacet
  facet normal -1.000000e+00 -0.000000e+00 0.000000e+00
    outer loop
      vertex   1.680000e+02 1.350000e+02 4.000000e+01
      vertex   1.680000e+02 6.500000e+01 5.000000e+00
      vertex   1.680000e+02 9.500000e+01 4.000000e+01
    endloop
  endfacet
  facet normal -1.000000e+00 -0.000000e+00 0.000000e+00
    outer loop
      vertex   1.680000e+02 9.500000e+01 4.000000e+01
      vertex   1.680000e+02 6.500000e+01 5.000000e+00
      vertex   1.680000e+02 6.500000e+01 1.050000e+02
    endloop
  endfacet
  facet normal -1.000000e+00 0.000000e+00 0.000000e+00
    outer loop
      vertex   1.680000e+02 9.500000e+01 4.000000e+01
      vertex   1.680000e+02 6.500000e+01 1.050000e+02
      vertex   1.680000e+02 9.500000e+01 1.050000e+02
    endloop
  endfacet
  facet normal -1.000000e+00 0.000000e+00 0.000000e+00
    outer loop
      vertex   1.680000e+02 1.350000e+02 4.000000e+01
      vertex   1.680000e+02 1.350000e+02 1.050000e+02
      vertex   1.680000e+02 1.650000e+02 1.050000e+02
    endloop
  endfacet
endsolid
